<svg width="220" height="84" viewBox="0 0 220 84" fill="none" xmlns="http://www.w3.org/2000/svg">
<mask id="mask0_6_350" style="mask-type:luminance" maskUnits="userSpaceOnUse" x="0" y="0" width="220" height="84">
<path d="M220 0H0V84H220V0Z" fill="white"/>
</mask>
<g mask="url(#mask0_6_350)">
<path d="M70.0325 49.5312H51.1501L61.0489 18.0328H79.9687L70.0325 49.5312Z" fill="#15B053"/>
<path d="M82.7922 9.05256C82.0234 11.5378 79.3836 13.5412 76.9244 13.5412H66.9136C64.4576 13.5412 63.1004 11.5002 63.8692 9.05256L65.298 4.56416C66.0668 2.07896 68.7096 0.0755615 71.1658 0.0755615H81.1766C83.6326 0.0755615 84.9898 2.11676 84.221 4.56416L82.7922 9.05256Z" fill="#15B053"/>
<path d="M99.2185 45.153C98.8513 46.3404 97.6062 47.3044 96.4326 47.3044H96.2115C95.0381 47.3044 94.3782 46.3404 94.7828 45.153L101.933 22.4458C102.3 21.2582 103.546 20.2944 104.719 20.2944H104.94C106.114 20.2944 106.774 21.2582 106.369 22.4458L99.2185 45.153ZM113.41 0.0377998L107.066 20.1842C107.433 18.9968 106.774 18.0328 105.637 18.0328H88.8435C86.3875 18.0328 83.7478 20.074 82.9758 22.5214L75.9004 45.005C75.1316 47.4902 76.4855 49.4934 78.9447 49.4934H116.748L132.292 0H113.41" fill="#15B053"/>
<path d="M148.61 22.4458C148.978 21.2582 150.222 20.2944 151.396 20.2944H151.618C152.79 20.2944 153.414 21.2582 153.046 22.4458L149.822 32.686H145.386L148.61 22.4458ZM168.006 34.9128L171.894 22.556C172.664 20.0708 171.306 18.0676 168.85 18.0676H135.484C133.028 18.0676 130.388 20.1086 129.616 22.556L122.54 45.0396C121.772 47.5248 123.128 49.5282 125.584 49.5282H163.424L164.122 47.2666H145.238C142.782 47.2666 141.426 45.2254 142.194 42.778L144.65 34.9128H168.006Z" fill="#15B053"/>
<path d="M200.42 20.2944H219.302L220 18.0298H182.232C179.776 18.0298 177.136 20.0708 176.364 22.5182L169.288 45.0396C168.52 47.5248 169.878 49.5282 172.334 49.5282H210.136L210.832 47.2666H191.95C189.494 47.2666 188.138 45.2254 188.906 42.778L194.552 24.783C195.322 22.3356 197.962 20.2944 200.42 20.2944Z" fill="#15B053"/>
<path d="M60.0592 0.0378418L50.123 31.5362L31.1284 0.0378418H15.5828L0 49.5312H2.2382L12.137 18.0328L31.1284 49.5312H46.7144L62.26 0.0378418H60.0592Z" fill="#15B053"/>
<path d="M190.116 79.5838C190.264 79.9178 190.446 80.3272 190.814 80.6958C191.546 81.436 192.832 81.9588 194.334 81.9588C194.774 81.9588 195.216 81.921 195.654 81.773C197.158 81.2912 197.158 80.028 197.158 79.9556C197.158 79.732 197.12 79.5114 197.012 79.2878C196.606 78.3964 195.73 78.0626 194.004 77.694C193.382 77.546 192.794 77.4326 192.172 77.1742C191.658 76.9884 189.604 76.2104 189.604 73.7252C189.604 71.536 191.362 69.0886 195.324 69.0886C197.12 69.0886 198.516 69.7186 199.358 70.61C200.164 71.4258 200.312 72.2416 200.424 72.7992L199.506 73.0606C199.25 72.5786 198.59 71.1676 195.912 71.1676C193.97 71.1676 193.198 72.0936 193.198 72.985C193.198 74.2102 194.41 74.582 195.618 74.878C196.13 74.9882 196.606 75.1016 197.12 75.212C197.852 75.3978 198.916 75.6938 199.686 76.5096C200.308 77.1774 200.75 78.2168 200.75 79.3666C200.75 81.7416 198.88 84.0032 194.958 84.0032C192.318 84.0032 190.96 83.0014 190.376 82.4062C189.46 81.4802 189.31 80.4784 189.238 79.8106L190.12 79.587L190.116 79.5838Z" fill="white"/>
<path d="M70.73 69.643C70.6926 68.232 70.73 67.1956 71.0226 66.3766C71.6452 64.6316 73.295 63.8536 75.1284 63.8536C76.9618 63.8536 77.6934 64.4836 78.319 65.079L77.768 65.8948C77.4754 65.7466 77.0334 65.5608 76.3736 65.5608C75.751 65.5608 74.979 65.8192 74.5774 66.7484C74.2474 67.454 74.2474 68.046 74.2474 69.7154H77.3634V71.8668H74.2474V83.4804H70.7268V71.8668H68.6724V69.7154H70.7268V69.6398L70.73 69.643Z" fill="white"/>
<path d="M82.0608 76.4688C82.0608 79.587 83.1254 81.773 85.323 81.773C87.5206 81.773 88.6226 79.4736 88.6226 76.6514C88.6226 73.5708 87.6328 71.2714 85.323 71.2714C83.0132 71.2714 82.0608 73.4606 82.0608 76.4656M92.3642 76.4278C92.3642 80.2864 90.1634 83.959 85.1766 83.959C81.0334 83.959 78.319 81.0266 78.319 76.5758C78.319 71.1202 82.207 69.117 85.2856 69.0824C88.881 69.0068 92.3612 71.4196 92.3612 76.4278" fill="white"/>
<path d="M98.4498 71.347C98.9634 70.6414 100.062 69.2336 102.484 69.2336C102.814 69.2336 103.181 69.2714 103.474 69.306V72.4244C102.814 72.0904 102.117 71.7944 101.127 71.7944C99.807 71.7944 99.0382 72.3518 98.4124 72.7236V83.3732H94.8544V69.6084H98.4124V71.3534H98.4498V71.347Z" fill="white"/>
<path d="M119.496 73.0543C118.836 71.9047 117.954 71.2747 116.672 71.2747C115.757 71.2747 114.985 71.7189 114.509 72.2007C113.226 73.5363 113.226 75.7255 113.226 76.4311C113.226 79.8077 114.546 81.8109 116.634 81.8109C118.138 81.8109 118.908 80.9573 119.458 80.2517V73.0543H119.496ZM119.496 64.4113H123.054V83.4079H119.496V81.9621C118.762 82.7023 117.624 83.9277 115.315 83.9277C112.199 83.9277 109.594 81.4047 109.594 76.6547C109.594 72.6103 111.72 69.0101 115.533 69.0101C117.806 69.0101 118.87 70.3077 119.53 71.0889V64.4113" fill="white"/>
<path d="M129.762 71.347C130.276 70.6414 131.374 69.2336 133.796 69.2336C134.126 69.2336 134.494 69.2714 134.824 69.306V72.4244C134.164 72.0904 133.466 71.7944 132.476 71.7944C131.194 71.7944 130.388 72.3518 129.762 72.7236V83.3732H126.204V69.6084H129.762V71.3534V71.347Z" fill="white"/>
<path d="M145.934 74.7616C145.786 73.5362 145.494 71.2746 142.818 71.2746C140.14 71.2746 139.738 73.3882 139.408 74.7616H145.934ZM149.378 79.6218C148.79 81.1432 147.692 83.9622 143.034 83.9622C138.378 83.9622 135.592 80.5478 135.592 76.3176C135.592 72.0874 138.158 69.0068 142.964 69.0068C144.136 69.0068 146.262 69.1926 147.912 70.862C149.784 72.7898 149.82 75.3506 149.856 76.872H139.406C139.552 77.8736 139.994 81.6944 144.172 81.6944C146.628 81.6944 147.618 80.4312 148.572 79.2092L149.378 79.6186" fill="white"/>
<path d="M160.564 77.0611C159.866 76.8027 159.168 76.5413 158.292 76.5413C156.716 76.5413 155.358 77.3571 155.358 79.1021C155.358 80.2897 156.018 81.5495 157.814 81.5495C159.064 81.5495 159.906 80.9921 160.6 80.5479V77.0611H160.564ZM164.01 83.3671H160.598V81.8079C160.01 82.4379 158.692 83.7733 156.162 83.7733C153.414 83.7733 151.652 81.8457 151.652 79.3573C151.652 76.2043 154.22 74.4215 157.372 74.4215C158.656 74.4215 159.536 74.6829 160.598 75.0167C160.56 74.3113 160.526 73.6057 160.23 72.9033C159.608 71.4575 158.066 71.1235 157.078 71.1235C154.804 71.1235 153.852 72.4212 153.336 73.1646L152.418 72.7205C153.006 71.3851 154.066 69.0479 158.102 69.0479C160.41 69.0479 161.914 69.8259 162.684 70.6417C164.004 72.0149 164.04 73.8325 164.04 75.0955V83.3701" fill="white"/>
<path d="M170.646 71.347C171.196 70.6414 172.334 69.2336 174.936 69.2336C175.666 69.2336 176.548 69.3816 177.354 69.8634C178.27 70.421 178.528 71.0888 178.748 71.681C179.188 71.1234 179.518 70.6416 180.252 70.1596C181.316 69.4194 182.452 69.2336 183.184 69.2336C184.578 69.2336 185.64 69.7532 186.228 70.3454C187.256 71.3848 187.256 72.7204 187.256 73.7976V83.37H183.698V73.7976C183.698 73.278 183.66 72.5724 183.148 72.018C182.818 71.6462 182.228 71.4226 181.68 71.4226C180.912 71.4226 180.178 71.7944 179.664 72.3518C179.334 72.6858 179.15 73.0196 178.93 73.3914V83.4078H175.372V73.9834C175.372 73.6118 175.334 72.6858 174.748 72.0904C174.418 71.7188 173.83 71.4604 173.246 71.4604C172.878 71.4604 172.146 71.533 171.374 72.314C170.936 72.7236 170.786 73.0542 170.606 73.3914V83.4078H167.084V69.643H170.642V71.3502L170.646 71.347Z" fill="white"/>
<path d="M52.5075 64.4113H48.9495V83.3701H52.5075V64.4113Z" fill="white"/>
<path d="M59.6576 64.4113H56.0996V83.3701H59.6576V64.4113Z" fill="white"/>
<path d="M30.8358 77.5082L28.0872 83.4078H31.3868L33.8054 77.9176C32.853 77.7696 31.863 77.6216 30.8358 77.5114" fill="white"/>
<path d="M38.2786 64.4113H36.9962L31.863 75.3947C32.8156 75.6183 33.7338 75.8767 34.5774 76.1727L37.0708 70.5345L42.8638 83.3733H46.898L38.2818 64.4143L38.2786 64.4113Z" fill="white"/>
<path d="M13.8584 79.6218C17.379 79.1398 22.1074 78.8816 25.958 78.8816C30.2474 78.8816 35.0132 79.2532 38.8638 79.8454C39.1938 79.9178 39.3774 79.7352 39.0848 79.5492C36.003 77.8042 31.3494 76.6924 26.1042 76.6924C21.1922 76.6924 16.7906 77.694 13.7462 79.2532C13.3416 79.439 13.4536 79.6974 13.8552 79.6248" fill="white"/>
</g>
</svg>
